<svg width="1097" height="658" viewBox="0 0 1097 658" fill="none" xmlns="http://www.w3.org/2000/svg">
<path d="M1062.64 201.89C1066.98 229.084 1056.98 257.405 1034.86 285.41C1012.73 313.417 978.562 340.978 934.86 366.546C847.465 417.677 722.223 460.677 579.856 483.36C437.488 506.044 305.084 504.094 206.127 482.654C156.643 471.933 115.602 456.356 85.8669 436.613C56.1333 416.87 37.8338 393.057 33.501 365.863C29.1682 338.669 39.1612 310.348 61.2871 282.343C83.4142 254.336 117.582 226.776 161.284 201.207C248.679 150.076 373.92 107.076 516.288 84.3927C658.656 61.7093 791.059 63.659 890.017 85.0987C939.501 95.8196 980.542 111.397 1010.28 131.141C1040.01 150.883 1058.31 174.696 1062.64 201.89Z" stroke="white" stroke-width="3"/>
<path d="M1062.64 291.89C1066.98 319.084 1056.98 347.405 1034.86 375.41C1012.73 403.417 978.562 430.978 934.86 456.546C847.465 507.677 722.223 550.677 579.856 573.36C437.488 596.044 305.084 594.094 206.127 572.654C156.643 561.933 115.602 546.356 85.8669 526.613C56.1333 506.87 37.8338 483.057 33.501 455.863C29.1682 428.669 39.1612 400.348 61.2871 372.343C83.4142 344.336 117.582 316.776 161.284 291.207C248.679 240.076 373.92 197.076 516.288 174.393C658.656 151.709 791.059 153.659 890.017 175.099C939.501 185.82 980.542 201.397 1010.28 221.141C1040.01 240.883 1058.31 264.696 1062.64 291.89Z" stroke="white" stroke-width="3"/>
<path d="M985 187L988.149 199.461L999.855 194.154L992.075 204.385L1003.52 210.228L990.674 210.525L993.244 223.118L985 213.257L976.756 223.118L979.326 210.525L966.476 210.228L977.925 204.385L970.145 194.154L981.851 199.461L985 187Z" fill="white"/>
</svg>
